<?xml version="1.0" encoding="UTF-8"?>
<svg id="Layer_1" data-name="Layer 1" xmlns="http://www.w3.org/2000/svg" version="1.1" viewBox="0 0 140.9 199.6">
  <defs>
    <style>
      .cls-1 {
        fill: #020202;
      }

      .cls-1, .cls-2, .cls-3, .cls-4, .cls-5 {
        stroke-width: 0px;
      }

      .cls-2 {
        fill: #5e171a;
      }

      .cls-3 {
        fill: #fd910b;
      }

      .cls-4 {
        fill: #010101;
      }

      .cls-5 {
        fill: #030303;
      }
    </style>
  </defs>
  <path class="cls-2" d="M108,25.2c-.8-2.8-2.1-5.1-3.5-8,2.9,1.7,5.2,3.6,7.2,5.5,3.6,3.5,7,7.4,8.2,12.5.4,1.9,1.4,2.6,3.1,3.1,6.6,2.2,9.3,7.6,11.3,13.9-2.2-1.4-4.1-2.6-6.1-3.7-.9-.6-2-.8-3.1-.7-1.5.2-2.6.8-2.7,2.5-.2,2.2.1,4.3,1.5,6.1,1.9,2.4,4.1,4.6,5,7.7,1.2,4.3.9,8.2-2.8,11.4-.4-.8,0-1.6,0-2.3.1-2.5-1-4.4-2.7-4.9-2.1-.7-4.5.2-5.8,2.2-2.2,3.3-4.4,6.5-7.7,8.9-6.5,4.7-13.3,5.6-20.7,2.5-8.8-3.7-13.1-10.5-14.6-19.8-1.2-7.5-.3-15-.8-22.6-.8-12-8.2-22.6-21.5-24.6-3.2-.5-6.3-.9-9.6-1,5.7-2.4,11.4-4.8,17.7-5.5,1.9-.2,3.9-.2,5.8-.5,6.8-1.4,11.8,1.3,15.6,6.7,3.3,4.7,5.1,9.9,5.9,15.5.9,6.4,1.1,13,1.8,19.4.3,2.5.8,5.1,2,7.4,2.8,5.8,7.4,7.3,12.8,2.6,3.8-3.4,5.7-7.7,6.5-12.6,1.2-7.5,0-14.8-2.6-22Z"/>
  <path class="cls-3" d="M32.5,28.4c4.2-5,8-7,12.9-5.1-.8.5-1.4.9-2.1,1.3-2.4,1.4-3.2,2.9-2.7,4.9.5,2,2.4,3.5,4.9,3.6,3.1,0,6,.4,8.9,1.4,11.9,3.9,16.7,13.7,14.7,25.5-1.5,8.8-7.6,14-14.6,18.4-2.5,1.6-5.1,3-7.7,4.4-5.4,2.8-10.3,6.4-13.9,11.2-6,7.8-6,16.5-2.4,25.5.9,2.2,2.4,4.3,2.9,6.9-7.4-5.4-13.1-11.9-17.9-19.5-3.1-4.9-2.6-9.6-.6-14.5,2.7-6.7,7.9-11.1,13.5-15.2,4.4-3.2,9-6.2,13.5-9.4,2.5-1.8,4.6-4,6-6.8,1.9-3.8,1-7.4-2.6-9.5-4-2.4-8.4-2.8-12.8-1.7-7.7,1.8-14.1,5.9-19.3,11.8-2.7,3-5.5,5.9-7.5,9.7-.6-1.3,0-2.4.2-3.5.8-7.4,3.2-14.2,8.6-19.6.8-.8.5-1.6.3-2.4-1.2-6.9,1.2-12.6,6.4-17.9-.4,3.1-.5,5.8,0,8.4.5,3.2,3.1,4.3,5.7,2.4,1.9-1.4,3-3.3,3.8-5.4.6-1.5,1-3,1.9-4.5Z"/>
  <path class="cls-4" d="M134.4,86c-1.4,6.4-3.9,12.2-6.7,17.9-2.2,4.4-5.9,6-10.1,7-6.3,1.4-12.3-.1-18.1-2.3-6.3-2.3-12.2-5.5-18.3-8.3-3.2-1.5-6.6-2.3-10.2-1.9-3.9.4-6.6,4.7-5.9,8.8,1.2,6.8,5.1,11.5,10.8,15.1,7.6,4.8,15.8,7.5,24.9,7.4.5,0,.9,0,1.4.2-5.4,2.6-11.1,4.5-17.1,5.1-2,.2-4.1,0-6-.6-1.8-.5-2.9-.3-4.3.9-4.4,3.9-9.8,4.1-15.3,3.5-.8,0-1.5-.3-2.4-.5.7-1,1.7-1.1,2.5-1.5,1.6-.7,3.1-1.6,4.4-2.7,2.5-2.2,2.1-4.7-1-6.1-3-1.3-6-.7-9.1-.2-4.6.8-9.9-1.3-12.2-5.4-.4-.8-1-1.6-.5-2.6.7-.1,1,.5,1.5.8,2.3,1.3,4.6,1.3,6,0,1.3-1.3,1.5-3.9.6-6-1.3-2.9-2.8-5.7-3.6-8.9-2.8-11.8,4.7-21.5,14.4-25,6.9-2.5,13.5-1.3,20,1.6,4.9,2.2,9.3,5.2,14,7.8,4.5,2.6,9.2,4.6,14.5,5,8.8.6,15.9-2.6,21.5-9.4,1.8-2.3,3.5-4.7,5.3-7.4.3,3-.7,5.3-.9,8Z"/>
  <path class="cls-5" d="M65,164.1c0,9.2,0,18.2,0,27.2,0,.1,0,.3-.2.6-6.1-.4-12.6,1.2-18.4-2.5v2.4c-4.5.1-8.8.3-13.2-.8-4.1-1-8-5.7-8.6-10.4-.9-7.4-1.6-14.8-2.7-22.1-.7-4.3-1.3-8.7-1.7-13.1,0-.2,0-.4,0-.7h9.9c.8,3.3.9,6.7,1.4,10,.8,5.5,1.4,11,2.1,16.5.4,3.3.9,6.6,1.4,9.8.5,2.8,2.4,4.8,4.9,5.2-.7-13.8-1.4-27.6-2.1-41.5h10.2c.2,2,.5,4,.5,6,.3,9.3.6,18.5.9,27.8,0,2.2.7,4.3,2.1,6,.8.9,1.6,1.9,3.1,1.7.2-13.8.6-27.6.4-41.5h10v19.3Z"/>
  <path class="cls-5" d="M107.6,175.4c1.5-10.3,2.1-20.5,4-30.6h10c-.4,3.5-.7,6.8-1.1,10.2-.7,5.5-1.3,11-2,16.5-.5,3.8-.6,7.7-1.7,11.5-1.5,4.8-6.2,8.1-11,8.6-4.8.5-9.7.2-14.6.3,0-3.5.7-6.7,1-10,.4-4.2,1.1-8.4,1.6-12.6.6-5.4,1.2-10.7,1.9-16.1.2-2.1.6-4.1.7-6.2.1-1.5.4-2.4,2.3-2.3,2.7.2,5.3,0,8.4,0-1.7,14-3.3,27.9-5,41.7,3.1-.5,4.4-2,5.1-5.9.3-1.6.4-3.3.5-5.2Z"/>
  <path class="cls-1" d="M73.9,145.9c2.5-1,4.9-1.2,7.3-1.2,4.1,0,8.2,0,12.4,0-.5,4.4-1,8.5-1.5,12.7h-8.9v-7.6c-3,.2-4.7,1.6-4.8,4.3-.2,3.5,0,7.1,0,10.8h13c-.7,1.7,0,3.3-.9,4.9h-12v22h-10.1c-.5-.5-.3-1.1-.3-1.7,0-11.5,0-23.1,0-34.6,0-4.2,1.6-7.7,5.9-9.6Z"/>
</svg>